<svg width="14" height="14" viewBox="0 0 14 14" fill="none" xmlns="http://www.w3.org/2000/svg">
<path d="M11.9227 2.36947H6.67273C6.59537 2.36947 6.52118 2.33874 6.46649 2.28404C6.41179 2.22934 6.38106 2.15515 6.38106 2.0778C6.38106 2.00044 6.41179 1.92626 6.46649 1.87156C6.52118 1.81686 6.59537 1.78613 6.67273 1.78613H11.9227C12.0001 1.78613 12.0743 1.81686 12.129 1.87156C12.1837 1.92626 12.2144 2.00044 12.2144 2.0778C12.2144 2.15515 12.1837 2.22934 12.129 2.28404C12.0743 2.33874 12.0001 2.36947 11.9227 2.36947ZM11.9227 5.65013H6.67273C6.59537 5.65013 6.52118 5.6194 6.46649 5.56471C6.41179 5.51001 6.38106 5.43582 6.38106 5.35847C6.38106 5.28111 6.41179 5.20692 6.46649 5.15223C6.52118 5.09753 6.59537 5.0668 6.67273 5.0668H11.9227C12.0001 5.0668 12.0743 5.09753 12.129 5.15223C12.1837 5.20692 12.2144 5.28111 12.2144 5.35847C12.2144 5.43582 12.1837 5.51001 12.129 5.56471C12.0743 5.6194 12.0001 5.65013 11.9227 5.65013ZM11.9227 8.9308H6.67273C6.59537 8.9308 6.52118 8.90007 6.46649 8.84537C6.41179 8.79067 6.38106 8.71649 6.38106 8.63913C6.38106 8.56178 6.41179 8.48759 6.46649 8.43289C6.52118 8.37819 6.59537 8.34747 6.67273 8.34747H11.9227C12.0001 8.34747 12.0743 8.37819 12.129 8.43289C12.1837 8.48759 12.2144 8.56178 12.2144 8.63913C12.2144 8.71649 12.1837 8.79067 12.129 8.84537C12.0743 8.90007 12.0001 8.9308 11.9227 8.9308ZM11.9227 12.2115H6.67273C6.59537 12.2115 6.52118 12.1807 6.46649 12.126C6.41179 12.0713 6.38106 11.9972 6.38106 11.9198C6.38106 11.8424 6.41179 11.7683 6.46649 11.7136C6.52118 11.6589 6.59537 11.6281 6.67273 11.6281H11.9227C12.0001 11.6281 12.0743 11.6589 12.129 11.7136C12.1837 11.7683 12.2144 11.8424 12.2144 11.9198C12.2144 11.9972 12.1837 12.0713 12.129 12.126C12.0743 12.1807 12.0001 12.2115 11.9227 12.2115ZM1.87131 10.9666C1.81639 10.9117 1.78553 10.8372 1.78553 10.7595C1.78553 10.6819 1.81639 10.6074 1.87131 10.5525C1.92623 10.4975 2.00072 10.4667 2.07839 10.4667C2.15606 10.4667 2.23055 10.4975 2.28548 10.5525L2.95048 11.2175V2.78538L2.28548 3.45038C2.22976 3.50379 2.15557 3.53361 2.07839 3.53361C2.00121 3.53361 1.92702 3.50379 1.87131 3.45038C1.84397 3.42327 1.82227 3.39101 1.80747 3.35547C1.79266 3.31993 1.78503 3.2818 1.78503 3.2433C1.78503 3.2048 1.79266 3.16667 1.80747 3.13113C1.82227 3.09559 1.84397 3.06333 1.87131 3.03622L3.03798 1.86955C3.09131 1.81812 3.16222 1.78893 3.23631 1.78788C3.31589 1.78739 3.39282 1.8165 3.45214 1.86955L4.61881 3.03622C4.67079 3.09265 4.69965 3.16657 4.69965 3.2433C4.69965 3.32003 4.67079 3.39395 4.61881 3.45038C4.59169 3.47772 4.55944 3.49942 4.52389 3.51423C4.48835 3.52903 4.45023 3.53666 4.41173 3.53666C4.37322 3.53666 4.3351 3.52903 4.29956 3.51423C4.26401 3.49942 4.23176 3.47772 4.20464 3.45038L3.53381 2.77955V11.2204L4.20464 10.5495C4.23184 10.5224 4.26412 10.5008 4.29965 10.4861C4.33518 10.4713 4.37327 10.4638 4.41173 10.4638C4.45018 10.4638 4.48827 10.4713 4.5238 10.4861C4.55933 10.5008 4.59161 10.5224 4.61881 10.5495C4.646 10.5767 4.66758 10.609 4.68229 10.6446C4.69701 10.6801 4.70459 10.7182 4.70459 10.7566C4.70459 10.7951 4.69701 10.8332 4.68229 10.8687C4.66758 10.9042 4.646 10.9365 4.61881 10.9637L3.45214 12.1304C3.39643 12.1838 3.32224 12.2136 3.24506 12.2136C3.16788 12.2136 3.09369 12.1838 3.03798 12.1304L1.87131 10.9666Z" fill="white" fill-opacity="0.6"/>
</svg>
