<svg width="16" height="24" viewBox="0 0 16 24" fill="none" xmlns="http://www.w3.org/2000/svg">
<path d="M5.56174 0C5.31311 0 5.07467 0.0902947 4.89886 0.25102C4.72305 0.411746 4.62428 0.629737 4.62428 0.857038C4.62428 1.08434 4.72305 1.30233 4.89886 1.46305C5.07467 1.62378 5.31311 1.71408 5.56174 1.71408H6.4992V8.28241L1.06194 14.9107C0.947568 15.0496 0.882062 15.2169 0.874112 15.3905C0.866161 15.5642 0.916142 15.7359 1.01742 15.883C1.11871 16.0301 1.26651 16.1455 1.44121 16.214C1.61592 16.2825 1.80928 16.3009 1.99565 16.2666L6.5892 15.4267H10.1572L14.7526 16.2666C14.9387 16.3005 15.1316 16.282 15.3059 16.2135C15.4802 16.145 15.6277 16.0298 15.7289 15.8831C15.83 15.7364 15.8801 15.565 15.8725 15.3917C15.8649 15.2184 15.8 15.0513 15.6863 14.9125L10.249 8.2807V1.71408H11.1865C11.4351 1.71408 11.6736 1.62378 11.8494 1.46305C12.0252 1.30233 12.124 1.08434 12.124 0.857038C12.124 0.629737 12.0252 0.411746 11.8494 0.25102C11.6736 0.0902947 11.4351 0 11.1865 0H5.56174ZM6.4992 11.1449V13.7126C6.43749 13.7128 6.37594 13.7185 6.31546 13.7297L4.03556 14.148L6.4992 11.1449ZM10.249 11.1449L12.7127 14.148L10.4328 13.7297C10.3723 13.7185 10.3108 13.7128 10.249 13.7126V11.1449ZM8.37412 17.1442C7.71261 17.1434 7.07198 17.3558 6.56482 17.7441C6.06032 18.1336 5.72131 18.6725 5.60687 19.267C5.49243 19.8615 5.60983 20.4739 5.9386 20.9974L7.56041 23.5685C7.64243 23.6996 7.76089 23.8086 7.90378 23.8843C8.04668 23.9601 8.20893 24 8.37412 24C8.53931 24 8.70156 23.9601 8.84446 23.8843C8.98735 23.8086 9.10581 23.6996 9.18783 23.5685L10.8096 20.9974C11.1384 20.4739 11.2558 19.8615 11.1414 19.267C11.0269 18.6725 10.6879 18.1336 10.1834 17.7441C9.67626 17.3558 9.03563 17.1434 8.37412 17.1442Z" fill="white" fill-opacity="0.6"/>
</svg>
