<svg width="11" height="15" viewBox="0 0 11 15" fill="none" xmlns="http://www.w3.org/2000/svg">
<path fill-rule="evenodd" clip-rule="evenodd" d="M6.09545 14.2104L6.08816 14.2118L6.04115 14.2349L6.02791 14.2376L6.01864 14.2349L5.97162 14.2118C5.96456 14.2095 5.95926 14.2106 5.95573 14.2151L5.95308 14.2217L5.94183 14.5051L5.94514 14.5183L5.95176 14.5269L6.02062 14.5759L6.03055 14.5786L6.0385 14.5759L6.10736 14.5269L6.11531 14.5163L6.11796 14.5051L6.1067 14.2223C6.10494 14.2153 6.10118 14.2113 6.09545 14.2104ZM6.27091 14.1356L6.26231 14.1369L6.13981 14.1985L6.13319 14.2051L6.1312 14.2124L6.14312 14.4971L6.14643 14.5051L6.15173 14.5097L6.28482 14.5713C6.29321 14.5735 6.29961 14.5717 6.30402 14.566L6.30667 14.5567L6.28416 14.1502C6.28195 14.1422 6.27754 14.1374 6.27091 14.1356ZM5.79748 14.1369C5.79456 14.1352 5.79107 14.1346 5.78774 14.1353C5.78441 14.1361 5.78149 14.1381 5.7796 14.1409L5.77563 14.1502L5.75311 14.5567C5.75355 14.5647 5.75731 14.57 5.76437 14.5726L5.7743 14.5713L5.90739 14.5097L5.91402 14.5044L5.91666 14.4971L5.92792 14.2124L5.92593 14.2045L5.91931 14.1978L5.79748 14.1369Z" fill="white" fill-opacity="0.6"/>
<path d="M2.20663 9.82842C2.37522 9.77924 2.55644 9.79906 2.71042 9.8835C2.8644 9.96794 2.97853 10.1101 3.0277 10.2787C3.07687 10.4473 3.05706 10.6285 2.97262 10.7825C2.88817 10.9364 2.74602 11.0506 2.57744 11.0997C2.24636 11.1964 2.00798 11.2984 1.85503 11.3911C2.01262 11.4858 2.26159 11.5917 2.60723 11.6904C3.37202 11.9089 4.46655 12.0532 5.70279 12.0532C6.93903 12.0532 8.03356 11.9089 8.79835 11.6904C9.14465 11.5917 9.39296 11.4858 9.55055 11.3911C9.39826 11.2984 9.15988 11.1964 8.82881 11.0997C8.66287 11.0484 8.52375 10.9339 8.44144 10.781C8.35912 10.628 8.3402 10.4489 8.38876 10.2821C8.43731 10.1153 8.54945 9.97429 8.70101 9.88943C8.85256 9.80457 9.03139 9.78266 9.19895 9.82842C9.64127 9.95754 10.0465 10.1231 10.3577 10.3356C10.6457 10.5336 11 10.8786 11 11.3911C11 11.9096 10.6371 12.2572 10.3445 12.4552C10.028 12.6684 9.61412 12.8346 9.16187 12.9637C8.24942 13.2253 7.02709 13.3775 5.70279 13.3775C4.37849 13.3775 3.15616 13.2253 2.24371 12.9637C1.79146 12.8346 1.37762 12.6684 1.06111 12.4552C0.768437 12.2565 0.405579 11.9096 0.405579 11.3911C0.405579 10.8786 0.759829 10.5336 1.04787 10.3356C1.35908 10.1231 1.76431 9.95754 2.20663 9.82842ZM5.70279 0.134521C7.01989 0.134521 8.28305 0.657738 9.21438 1.58907C10.1457 2.5204 10.6689 3.78356 10.6689 5.10066C10.6689 6.80106 9.74191 8.18363 8.78179 9.16627C8.40013 9.55291 7.98999 9.91037 7.55483 10.2356C7.16151 10.531 6.26231 11.0845 6.26231 11.0845C6.09176 11.1815 5.89896 11.2324 5.70279 11.2324C5.50662 11.2324 5.31382 11.1815 5.14327 11.0845C4.69702 10.8258 4.26551 10.5424 3.85075 10.2356C3.41495 9.91117 3.00475 9.55366 2.62379 9.16627C1.66367 8.18363 0.736654 6.80106 0.736654 5.10066C0.736654 3.78356 1.25987 2.5204 2.1912 1.58907C3.12253 0.657738 4.38569 0.134521 5.70279 0.134521ZM5.70279 1.45882C4.73692 1.45882 3.8106 1.84252 3.12762 2.52549C2.44465 3.20847 2.06096 4.13478 2.06096 5.10066C2.06096 6.30312 2.72046 7.37051 3.57066 8.23925C4.2103 8.89346 4.91483 9.3914 5.40283 9.69731L5.70279 9.87874L6.00274 9.69731C6.49009 9.3914 7.19528 8.89346 7.83492 8.23992C8.68512 7.37051 9.34462 6.30378 9.34462 5.10066C9.34462 4.13478 8.96093 3.20847 8.27795 2.52549C7.59498 1.84252 6.66866 1.45882 5.70279 1.45882ZM5.70279 3.1142C5.96365 3.1142 6.22196 3.16558 6.46297 3.26541C6.70398 3.36524 6.92297 3.51156 7.10742 3.69602C7.29188 3.88048 7.43821 4.09947 7.53803 4.34047C7.63786 4.58148 7.68924 4.83979 7.68924 5.10066C7.68924 5.36152 7.63786 5.61983 7.53803 5.86084C7.43821 6.10185 7.29188 6.32083 7.10742 6.50529C6.92297 6.68975 6.70398 6.83607 6.46297 6.9359C6.22196 7.03573 5.96365 7.08711 5.70279 7.08711C5.17595 7.08711 4.67069 6.87782 4.29815 6.50529C3.92562 6.13276 3.71634 5.6275 3.71634 5.10066C3.71634 4.57382 3.92562 4.06855 4.29815 3.69602C4.67069 3.32349 5.17595 3.1142 5.70279 3.1142ZM5.70279 4.4385C5.52718 4.4385 5.35876 4.50827 5.23458 4.63244C5.1104 4.75662 5.04064 4.92504 5.04064 5.10066C5.04064 5.27627 5.1104 5.44469 5.23458 5.56887C5.35876 5.69305 5.52718 5.76281 5.70279 5.76281C5.8784 5.76281 6.04682 5.69305 6.171 5.56887C6.29518 5.44469 6.36494 5.27627 6.36494 5.10066C6.36494 4.92504 6.29518 4.75662 6.171 4.63244C6.04682 4.50827 5.8784 4.4385 5.70279 4.4385Z" fill="white" fill-opacity="0.6"/>
</svg>
