<svg width="25" height="24" viewBox="0 0 25 24" fill="none" xmlns="http://www.w3.org/2000/svg">
<path fill-rule="evenodd" clip-rule="evenodd" d="M12.6733 0C12.8954 0 13.1083 0.0882058 13.2653 0.245213C13.4223 0.40222 13.5105 0.615168 13.5105 0.837209V1.95349C13.5105 2.17553 13.4223 2.38848 13.2653 2.54549C13.1083 2.70249 12.8954 2.7907 12.6733 2.7907C12.4513 2.7907 12.2384 2.70249 12.0813 2.54549C11.9243 2.38848 11.8361 2.17553 11.8361 1.95349V0.837209C11.8361 0.615168 11.9243 0.40222 12.0813 0.245213C12.2384 0.0882058 12.4513 0 12.6733 0ZM4.1885 3.51516C4.34548 3.35838 4.55827 3.27032 4.78013 3.27032C5.00199 3.27032 5.21478 3.35838 5.37176 3.51516L5.81046 3.95274C5.96304 4.11057 6.04752 4.32201 6.04572 4.54153C6.04392 4.76104 5.95597 4.97107 5.80081 5.12637C5.64566 5.28167 5.43572 5.36982 5.21621 5.37183C4.99669 5.37384 4.78517 5.28955 4.6272 5.13712L4.1885 4.69842C4.03172 4.54144 3.94366 4.32865 3.94366 4.10679C3.94366 3.88493 4.03172 3.67214 4.1885 3.51516ZM21.1582 3.51516C21.315 3.67214 21.403 3.88493 21.403 4.10679C21.403 4.32865 21.315 4.54144 21.1582 4.69842L20.7195 5.13712C20.5608 5.285 20.3509 5.36551 20.134 5.36168C19.9171 5.35786 19.7101 5.26999 19.5567 5.1166C19.4033 4.96321 19.3155 4.75627 19.3117 4.53937C19.3078 4.32248 19.3883 4.11257 19.5362 3.95386L19.9749 3.51516C20.1319 3.35838 20.3447 3.27032 20.5665 3.27032C20.7884 3.27032 21.0012 3.35838 21.1582 3.51516ZM12.6733 6.13953C11.5767 6.1394 10.502 6.44697 9.57147 7.02728C8.64094 7.60759 7.89191 8.43735 7.40953 9.42221C6.92716 10.4071 6.7308 11.5075 6.84279 12.5985C6.95477 13.6894 7.37061 14.727 8.04302 15.5933H11.8361V11.7879L11.0324 12.5916C10.9551 12.6716 10.8627 12.7353 10.7606 12.7791C10.6584 12.8229 10.5485 12.846 10.4374 12.8469C10.3262 12.8478 10.216 12.8266 10.1131 12.7844C10.0102 12.7423 9.91679 12.6801 9.83822 12.6014C9.75965 12.5228 9.69753 12.4293 9.65548 12.3264C9.61343 12.2235 9.5923 12.1132 9.59332 12.0021C9.59434 11.8909 9.61748 11.781 9.66141 11.6789C9.70533 11.5768 9.76916 11.4844 9.84915 11.4073L12.0817 9.1747C12.2387 9.01792 12.4515 8.92985 12.6733 8.92985C12.8952 8.92985 13.108 9.01792 13.265 9.1747L15.4975 11.4073C15.5798 11.4839 15.6458 11.5763 15.6915 11.679C15.7373 11.7817 15.7619 11.8926 15.7639 12.005C15.7658 12.1174 15.7452 12.2291 15.7031 12.3333C15.661 12.4376 15.5983 12.5323 15.5188 12.6118C15.4393 12.6913 15.3446 12.7539 15.2403 12.796C15.1361 12.8382 15.0244 12.8588 14.912 12.8568C14.7996 12.8549 14.6887 12.8303 14.586 12.7845C14.4833 12.7387 14.3909 12.6728 14.3143 12.5905L13.5105 11.7868V15.5922H17.3037C17.9757 14.7259 18.3913 13.6884 18.5031 12.5976C18.6149 11.5069 18.4185 10.4066 17.9362 9.42197C17.4538 8.4373 16.7049 7.60769 15.7746 7.02744C14.8443 6.44718 13.7698 6.13956 12.6733 6.13953ZM6.06832 15.6279C5.43866 14.4805 5.11872 13.1889 5.14001 11.8803C5.1613 10.5717 5.52309 9.29118 6.18974 8.1649C6.85639 7.03861 7.80492 6.10539 8.9419 5.45715C10.0789 4.80891 11.3651 4.468 12.6739 4.468C13.9827 4.468 15.2689 4.80891 16.4059 5.45715C17.5429 6.10539 18.4914 7.03861 19.1581 8.1649C19.8247 9.29118 20.1865 10.5717 20.2078 11.8803C20.2291 13.1889 19.9091 14.4805 19.2795 15.6279H23.8361C24.0582 15.6279 24.2711 15.7161 24.4281 15.8731C24.5851 16.0301 24.6733 16.2431 24.6733 16.4651C24.6733 16.6872 24.5851 16.9001 24.4281 17.0571C24.2711 17.2141 24.0582 17.3023 23.8361 17.3023H1.51055C1.28851 17.3023 1.07556 17.2141 0.918553 17.0571C0.761546 16.9001 0.67334 16.6872 0.67334 16.4651C0.67334 16.2431 0.761546 16.0301 0.918553 15.8731C1.07556 15.7161 1.28851 15.6279 1.51055 15.6279H6.06832ZM0.67334 12C0.67334 11.778 0.761546 11.565 0.918553 11.408C1.07556 11.251 1.28851 11.1628 1.51055 11.1628H2.62683C2.84887 11.1628 3.06182 11.251 3.21882 11.408C3.37583 11.565 3.46404 11.778 3.46404 12C3.46404 12.222 3.37583 12.435 3.21882 12.592C3.06182 12.749 2.84887 12.8372 2.62683 12.8372H1.51055C1.28851 12.8372 1.07556 12.749 0.918553 12.592C0.761546 12.435 0.67334 12.222 0.67334 12ZM21.8826 12C21.8826 11.778 21.9708 11.565 22.1279 11.408C22.2849 11.251 22.4978 11.1628 22.7199 11.1628H23.8361C24.0582 11.1628 24.2711 11.251 24.4281 11.408C24.5851 11.565 24.6733 11.778 24.6733 12C24.6733 12.222 24.5851 12.435 24.4281 12.592C24.2711 12.749 24.0582 12.8372 23.8361 12.8372H22.7199C22.4978 12.8372 22.2849 12.749 22.1279 12.592C21.9708 12.435 21.8826 12.222 21.8826 12ZM4.02218 19.814C4.02218 19.5919 4.11038 19.379 4.26739 19.222C4.4244 19.065 4.63734 18.9767 4.85939 18.9767H20.4873C20.7093 18.9767 20.9223 19.065 21.0793 19.222C21.2363 19.379 21.3245 19.5919 21.3245 19.814C21.3245 20.036 21.2363 20.2489 21.0793 20.406C20.9223 20.563 20.7093 20.6512 20.4873 20.6512H4.85939C4.63734 20.6512 4.4244 20.563 4.26739 20.406C4.11038 20.2489 4.02218 20.036 4.02218 19.814ZM7.37101 23.1628C7.37101 22.9408 7.45922 22.7278 7.61623 22.5708C7.77323 22.4138 7.98618 22.3256 8.20822 22.3256H17.1385C17.3605 22.3256 17.5734 22.4138 17.7305 22.5708C17.8875 22.7278 17.9757 22.9408 17.9757 23.1628C17.9757 23.3848 17.8875 23.5978 17.7305 23.7548C17.5734 23.9118 17.3605 24 17.1385 24H8.20822C7.98618 24 7.77323 23.9118 7.61623 23.7548C7.45922 23.5978 7.37101 23.3848 7.37101 23.1628Z" fill="white" fill-opacity="0.6"/>
</svg>
