<svg width="25" height="24" viewBox="0 0 25 24" fill="none" xmlns="http://www.w3.org/2000/svg">
<path d="M24.4 0V0.75C24.4 2.17188 24.275 3.5 24.025 4.73438C23.775 5.96875 23.3883 7.13672 22.8649 8.23828C22.3414 9.33984 21.693 10.3867 20.9196 11.3789C20.1461 12.3711 19.2321 13.3438 18.1774 14.2969L15.9391 21H12.4V18.3398C11.3219 18.9727 10.2321 19.582 9.13049 20.168L4.23206 15.2695C4.81799 14.168 5.42737 13.0781 6.06018 12H3.40002V8.46094L10.1031 6.23438C11.0485 5.17969 12.0172 4.26172 13.0094 3.48047C14.0016 2.69922 15.0524 2.05078 16.1617 1.53516C17.2711 1.01953 18.4391 0.636719 19.6656 0.386719C20.8922 0.136719 22.2203 0.0078125 23.65 0H24.4ZM6.93909 10.5C7.16565 10.1406 7.39221 9.78516 7.61877 9.43359C7.84534 9.08203 8.08752 8.73438 8.34534 8.39062L4.90002 9.53906V10.5H6.93909ZM9.41174 18.3047C9.81018 18.0781 10.2086 17.8555 10.6071 17.6367C11.0055 17.418 11.4039 17.1914 11.8024 16.957L7.44299 12.5977C7.21643 12.9961 6.99377 13.3945 6.77502 13.793C6.55627 14.1914 6.32971 14.5938 6.09534 15L9.41174 18.3047ZM16.0094 16.0547C15.6656 16.3047 15.318 16.543 14.9664 16.7695C14.6149 16.9961 14.2594 17.2266 13.9 17.4609V19.5H14.861L16.0094 16.0547ZM18.1539 12.2227C18.9274 11.4492 19.5992 10.6641 20.1696 9.86719C20.7399 9.07031 21.2242 8.23438 21.6227 7.35938C22.0211 6.48438 22.318 5.56641 22.5133 4.60547C22.7086 3.64453 22.8336 2.61328 22.8883 1.51172C21.7946 1.55078 20.7672 1.67188 19.8063 1.875C18.8453 2.07812 17.9274 2.37891 17.0524 2.77734C16.1774 3.17578 15.3375 3.65625 14.5328 4.21875C13.7281 4.78125 12.9352 5.45312 12.1539 6.23438C11.3805 6.99219 10.6735 7.78906 10.0328 8.625C9.39221 9.46094 8.79065 10.3438 8.22815 11.2734L13.1266 16.1719C14.0485 15.6094 14.9274 15.0078 15.7633 14.3672C16.5992 13.7266 17.3961 13.0117 18.1539 12.2227ZM15.4 12C14.986 12 14.5992 11.9219 14.2399 11.7656C13.8805 11.6094 13.5602 11.3945 13.2789 11.1211C12.9977 10.8477 12.7828 10.5312 12.6344 10.1719C12.486 9.8125 12.4078 9.42188 12.4 9C12.4 8.58594 12.4781 8.19922 12.6344 7.83984C12.7906 7.48047 13.0055 7.16016 13.2789 6.87891C13.5524 6.59766 13.8688 6.38281 14.2281 6.23438C14.5875 6.08594 14.9781 6.00781 15.4 6C15.8141 6 16.2008 6.07812 16.5602 6.23438C16.9196 6.39062 17.2399 6.60547 17.5211 6.87891C17.8024 7.15234 18.0172 7.46875 18.1656 7.82812C18.3141 8.1875 18.3922 8.57812 18.4 9C18.4 9.41406 18.3219 9.80078 18.1656 10.1602C18.0094 10.5195 17.7946 10.8398 17.5211 11.1211C17.2477 11.4023 16.9313 11.6172 16.5719 11.7656C16.2125 11.9141 15.8219 11.9922 15.4 12ZM15.4 7.5C15.1891 7.5 14.9938 7.53906 14.8141 7.61719C14.6344 7.69531 14.4781 7.80078 14.3453 7.93359C14.2125 8.06641 14.1031 8.22656 14.0172 8.41406C13.9313 8.60156 13.8922 8.79688 13.9 9C13.9 9.21094 13.9391 9.40625 14.0172 9.58594C14.0953 9.76562 14.2008 9.92188 14.3336 10.0547C14.4664 10.1875 14.6266 10.2969 14.8141 10.3828C15.0016 10.4688 15.1969 10.5078 15.4 10.5C15.611 10.5 15.8063 10.4609 15.986 10.3828C16.1656 10.3047 16.3219 10.1992 16.4547 10.0664C16.5875 9.93359 16.6969 9.77344 16.7828 9.58594C16.8688 9.39844 16.9078 9.20312 16.9 9C16.9 8.78906 16.861 8.59375 16.7828 8.41406C16.7047 8.23438 16.5992 8.07812 16.4664 7.94531C16.3336 7.8125 16.1735 7.70312 15.986 7.61719C15.7985 7.53125 15.6031 7.49219 15.4 7.5ZM3.40002 18C3.81409 18 4.20081 18.0781 4.56018 18.2344C4.91956 18.3906 5.23987 18.6055 5.52112 18.8789C5.80237 19.1523 6.01721 19.4688 6.16565 19.8281C6.31409 20.1875 6.39221 20.5781 6.40002 21C6.40002 21.4141 6.3219 21.8008 6.16565 22.1602C6.0094 22.5195 5.79456 22.8398 5.52112 23.1211C5.24768 23.4023 4.93127 23.6172 4.5719 23.7656C4.21252 23.9141 3.8219 23.9922 3.40002 24H0.400024V21C0.400024 20.5859 0.478149 20.1992 0.634399 19.8398C0.790649 19.4805 1.00549 19.1602 1.27893 18.8789C1.55237 18.5977 1.86877 18.3828 2.22815 18.2344C2.58752 18.0859 2.97815 18.0078 3.40002 18ZM3.40002 22.5C3.61096 22.5 3.80627 22.4609 3.98596 22.3828C4.16565 22.3047 4.3219 22.1992 4.45471 22.0664C4.58752 21.9336 4.6969 21.7734 4.78284 21.5859C4.86877 21.3984 4.90784 21.2031 4.90002 21C4.90002 20.7891 4.86096 20.5938 4.78284 20.4141C4.70471 20.2344 4.59924 20.0781 4.46643 19.9453C4.33362 19.8125 4.17346 19.7031 3.98596 19.6172C3.79846 19.5312 3.60315 19.4922 3.40002 19.5C3.18909 19.5 2.99377 19.5391 2.81409 19.6172C2.6344 19.6953 2.47815 19.8008 2.34534 19.9336C2.21252 20.0664 2.10315 20.2266 2.01721 20.4141C1.93127 20.6016 1.89221 20.7969 1.90002 21V22.5H3.40002Z" fill="white" fill-opacity="0.6"/>
</svg>
