<svg width="49" height="49" viewBox="0 0 49 49" fill="none" xmlns="http://www.w3.org/2000/svg">
<g clip-path="url(#clip0_3_2136)">
<path d="M35.0758 33.6409L29.6455 31.2671C30.7424 29.1201 31.5212 26.9019 32.041 24.6346L35.0655 33.6505M17.9322 30.8601L12.3598 32.8616L16.0028 24.0774C16.361 26.4098 17.0092 28.6884 17.9322 30.8601ZM24.7088 4.87436C24.7088 4.87436 31.698 7.96384 31.3229 19.3374C31.1409 23.7113 29.9606 27.3889 28.5451 30.3368C28.0491 31.3419 27.0154 31.9575 25.9045 31.9089L21.6397 31.7607C20.5184 31.7218 19.5395 31.0462 19.0945 30.0084C17.916 27.0005 16.9649 23.2187 17.0868 18.8427C17.4981 7.46645 24.7088 4.87436 24.7088 4.87436ZM27.7341 40.1215L26.2734 41.484L26.5483 33.2844C27.062 33.2121 27.5488 33.0485 27.988 32.8132L27.7341 40.1215ZM23.3314 44.2284L21.9689 42.7678L22.2911 33.2067L25.1446 33.2958L24.7921 42.8659L23.3314 44.2284ZM20.587 41.2864L19.2245 39.8258L19.4784 32.5176C19.9098 32.7932 20.3841 32.9901 20.8819 33.0875L20.587 41.2864ZM22.3727 14.125C21.8232 14.6375 21.4999 15.3474 21.4738 16.0984C21.4477 16.8494 21.721 17.58 22.2336 18.1295C22.7461 18.679 23.456 19.0023 24.207 19.0284C24.958 19.0545 25.6886 18.7812 26.2381 18.2686C27.388 17.196 27.4499 15.414 26.3772 14.2641C25.8646 13.7146 25.1548 13.3913 24.4038 13.3652C23.6528 13.3391 22.9222 13.6124 22.3727 14.125Z" fill="white" fill-opacity="0.6"/>
</g>
<defs>
<clipPath id="clip0_3_2136">
<rect width="34" height="34" fill="white" transform="translate(0 23.3711) rotate(-43.01)"/>
</clipPath>
</defs>
</svg>
