<svg width="24" height="24" viewBox="0 0 24 24" fill="none" xmlns="http://www.w3.org/2000/svg">
<path d="M11.9934 10.36C11.4568 10.3006 10.9609 10.0453 10.6008 9.64306C10.2406 9.24083 10.0415 8.7199 10.0415 8.18C10.0415 7.6401 10.2406 7.11917 10.6008 6.71694C10.9609 6.31471 11.4568 6.05944 11.9934 6V7.06667C11.6946 7.06667 11.408 7.18537 11.1967 7.39666C10.9854 7.60795 10.8667 7.89452 10.8667 8.19333C10.8667 8.49214 10.9854 8.77872 11.1967 8.99001C11.408 9.2013 11.6946 9.32 11.9934 9.32V10.36ZM18.66 22.6667H5.3267C5.14989 22.6667 4.98032 22.7369 4.8553 22.8619C4.73027 22.987 4.66003 23.1565 4.66003 23.3333C4.66003 23.5101 4.73027 23.6797 4.8553 23.8047C4.98032 23.9298 5.14989 24 5.3267 24H18.66C18.8368 24 19.0064 23.9298 19.1314 23.8047C19.2565 23.6797 19.3267 23.5101 19.3267 23.3333C19.3267 23.1565 19.2565 22.987 19.1314 22.8619C19.0064 22.7369 18.8368 22.6667 18.66 22.6667Z" fill="white" fill-opacity="0.6"/>
<path d="M11.9534 7.04004V9.29337C12.2522 9.29337 12.5388 9.17467 12.75 8.96338C12.9613 8.75209 13.08 8.46552 13.08 8.16671C13.08 7.86789 12.9613 7.58132 12.75 7.37003C12.5388 7.15874 12.2522 7.04004 11.9534 7.04004Z" fill="white" fill-opacity="0.6"/>
<path d="M19.16 14.9668C18.7815 13.6244 18.1352 12.3726 17.26 11.2868L17.0067 10.9734V10.3668C16.52 2.90675 12.46 0.400085 12.2867 0.293418C12.1853 0.234906 12.0704 0.204102 11.9534 0.204102C11.8363 0.204102 11.7214 0.234906 11.62 0.293418C11.4467 0.400085 7.38668 2.90675 6.95335 10.3601C6.95335 10.6001 6.95335 10.8468 6.92002 11.0934L6.76668 11.2868C5.0678 13.3763 4.24569 16.0434 4.47335 18.7268C4.48837 18.893 4.56518 19.0475 4.68862 19.1598C4.81205 19.2722 4.97313 19.3341 5.14002 19.3334H8.03335C8.20681 19.9073 8.42987 20.4649 8.70002 21.0001C8.76248 21.109 8.85443 21.1981 8.9653 21.2571C9.07617 21.3161 9.20144 21.3425 9.32668 21.3334H14.6067C14.7248 21.3332 14.8408 21.3016 14.9427 21.2419C15.0446 21.1821 15.1288 21.0964 15.1867 20.9934C15.4584 20.459 15.6815 19.9012 15.8534 19.3267H18.8467C19.0136 19.3274 19.1746 19.2655 19.2981 19.1532C19.4215 19.0408 19.4983 18.8863 19.5134 18.7201C19.6252 17.4579 19.5055 16.1859 19.16 14.9668ZM11.9534 10.3601V20.0001H9.71335C9.23638 18.882 8.88317 17.715 8.66002 16.5201L7.32668 16.7868C7.41335 17.2201 7.50668 17.6201 7.60668 18.0001H5.76668C5.72479 16.4005 6.11886 14.8196 6.90668 13.4268C6.90668 13.7601 6.96002 14.0934 6.99335 14.4334L8.32668 14.2934C8.18643 13.016 8.16189 11.7286 8.25335 10.4468C8.59335 4.90008 11.0334 2.44675 11.9534 1.68675V6.00008C12.5351 6.00008 13.0929 6.23117 13.5043 6.6425C13.9156 7.05383 14.1467 7.61171 14.1467 8.19342C14.1467 8.77513 13.9156 9.33301 13.5043 9.74434C13.0929 10.1557 12.5351 10.3867 11.9534 10.3867V10.3601ZM16.2533 18.0001C16.6573 16.4509 16.9052 14.8653 16.9934 13.2668C17.8365 14.6989 18.2614 16.3387 18.22 18.0001H16.2533Z" fill="white" fill-opacity="0.6"/>
</svg>
