<svg width="20" height="20" viewBox="0 0 20 20" fill="none" xmlns="http://www.w3.org/2000/svg">
<path d="M9.19833 20C8.74833 20 8.361 19.85 8.03633 19.55C7.71167 19.25 7.51567 18.8833 7.44833 18.45L7.22333 16.8C7.00667 16.7167 6.80267 16.6167 6.61133 16.5C6.42 16.3833 6.23233 16.2583 6.04833 16.125L4.49833 16.775C4.08167 16.9583 3.665 16.975 3.24833 16.825C2.83167 16.675 2.50667 16.4083 2.27333 16.025L1.09833 13.975C0.864999 13.5917 0.798333 13.1833 0.898333 12.75C0.998333 12.3167 1.22333 11.9583 1.57333 11.675L2.89833 10.675C2.88167 10.5583 2.87333 10.4457 2.87333 10.337V9.662C2.87333 9.554 2.88167 9.44167 2.89833 9.325L1.57333 8.325C1.22333 8.04167 0.998333 7.68333 0.898333 7.25C0.798333 6.81667 0.864999 6.40833 1.09833 6.025L2.27333 3.975C2.50667 3.59167 2.83167 3.325 3.24833 3.175C3.665 3.025 4.08167 3.04167 4.49833 3.225L6.04833 3.875C6.23167 3.74167 6.42333 3.61667 6.62333 3.5C6.82333 3.38333 7.02333 3.28333 7.22333 3.2L7.44833 1.55C7.515 1.11667 7.711 0.75 8.03633 0.45C8.36167 0.15 8.749 0 9.19833 0H11.5483C11.9983 0 12.386 0.15 12.7113 0.45C13.0367 0.75 13.2323 1.11667 13.2983 1.55L13.5233 3.2C13.74 3.28333 13.9443 3.38333 14.1363 3.5C14.3283 3.61667 14.5157 3.74167 14.6983 3.875L16.2483 3.225C16.665 3.04167 17.0817 3.025 17.4983 3.175C17.915 3.325 18.24 3.59167 18.4733 3.975L19.6483 6.025C19.8817 6.40833 19.9483 6.81667 19.8483 7.25C19.7483 7.68333 19.5233 8.04167 19.1733 8.325L17.8483 9.325C17.865 9.44167 17.8733 9.55433 17.8733 9.663V10.337C17.8733 10.4457 17.8567 10.5583 17.8233 10.675L19.1483 11.675C19.4983 11.9583 19.7233 12.3167 19.8233 12.75C19.9233 13.1833 19.8567 13.5917 19.6233 13.975L18.4233 16.025C18.19 16.4083 17.865 16.675 17.4483 16.825C17.0317 16.975 16.615 16.9583 16.1983 16.775L14.6983 16.125C14.515 16.2583 14.3233 16.3833 14.1233 16.5C13.9233 16.6167 13.7233 16.7167 13.5233 16.8L13.2983 18.45C13.2317 18.8833 13.036 19.25 12.7113 19.55C12.3867 19.85 11.999 20 11.5483 20H9.19833ZM9.37333 18H11.3483L11.6983 15.35C12.215 15.2167 12.6943 15.021 13.1363 14.763C13.5783 14.505 13.9823 14.1923 14.3483 13.825L16.8233 14.85L17.7983 13.15L15.6483 11.525C15.7317 11.2917 15.79 11.046 15.8233 10.788C15.8567 10.53 15.8733 10.2673 15.8733 10C15.8733 9.73267 15.8567 9.47033 15.8233 9.213C15.79 8.95567 15.7317 8.70967 15.6483 8.475L17.7983 6.85L16.8233 5.15L14.3483 6.2C13.9817 5.81667 13.5777 5.496 13.1363 5.238C12.695 4.98 12.2157 4.784 11.6983 4.65L11.3733 2H9.39833L9.04833 4.65C8.53167 4.78333 8.05267 4.97933 7.61133 5.238C7.17 5.49667 6.76567 5.809 6.39833 6.175L3.92333 5.15L2.94833 6.85L5.09833 8.45C5.015 8.7 4.95667 8.95 4.92333 9.2C4.89 9.45 4.87333 9.71667 4.87333 10C4.87333 10.2667 4.89 10.525 4.92333 10.775C4.95667 11.025 5.015 11.275 5.09833 11.525L2.94833 13.15L3.92333 14.85L6.39833 13.8C6.765 14.1833 7.16933 14.5043 7.61133 14.763C8.05333 15.0217 8.53233 15.2173 9.04833 15.35L9.37333 18ZM10.4233 13.5C11.39 13.5 12.215 13.1583 12.8983 12.475C13.5817 11.7917 13.9233 10.9667 13.9233 10C13.9233 9.03333 13.5817 8.20833 12.8983 7.525C12.215 6.84167 11.39 6.5 10.4233 6.5C9.44 6.5 8.611 6.84167 7.93633 7.525C7.26167 8.20833 6.924 9.03333 6.92333 10C6.92267 10.9667 7.26033 11.7917 7.93633 12.475C8.61233 13.1583 9.44133 13.5 10.4233 13.5Z" fill="white" fill-opacity="0.6"/>
</svg>
