<svg width="20" height="23" viewBox="0 0 20 23" fill="none" xmlns="http://www.w3.org/2000/svg">
<path d="M12.1738 22.574C12.1738 22.687 12.128 22.7953 12.0465 22.8752C11.9649 22.9551 11.8544 23 11.7391 23H8.26094C8.14564 23 8.03505 22.9551 7.95352 22.8752C7.87198 22.7953 7.82618 22.687 7.82618 22.574C7.82618 22.461 7.87198 22.3527 7.95352 22.2728C8.03505 22.1929 8.14564 22.148 8.26094 22.148H11.7391C11.8544 22.148 11.9649 22.1929 12.0465 22.2728C12.128 22.3527 12.1738 22.461 12.1738 22.574ZM10 10.2201C10.172 10.2201 10.3401 10.1701 10.4831 10.0765C10.6261 9.98291 10.7375 9.84985 10.8033 9.69416C10.8692 9.53848 10.8864 9.36718 10.8528 9.20191C10.8193 9.03663 10.7365 8.88482 10.6149 8.76567C10.4932 8.64652 10.3383 8.56537 10.1696 8.5325C10.001 8.49962 9.82613 8.5165 9.66725 8.58098C9.50836 8.64547 9.37256 8.75467 9.27701 8.89478C9.18147 9.03489 9.13047 9.19961 9.13047 9.36812C9.13047 9.59408 9.22208 9.81079 9.38515 9.97057C9.54822 10.1303 9.76939 10.2201 10 10.2201ZM19.9691 15.2256L18.6246 21.1469C18.5775 21.359 18.4757 21.5557 18.3287 21.7181C18.1818 21.8805 17.9948 22.0032 17.7855 22.0745C17.6458 22.1226 17.4989 22.1475 17.3508 22.148C17.0574 22.1478 16.7727 22.0502 16.5432 21.8711L13.4618 19.592H6.53819L3.45789 21.8711C3.22838 22.0502 2.94371 22.1478 2.65031 22.148C2.50222 22.1475 2.35526 22.1226 2.21555 22.0745C2.00632 22.0032 1.81929 21.8805 1.67236 21.7181C1.52544 21.5557 1.42355 21.359 1.37645 21.1469L0.0308559 15.2256C-0.0122471 15.0349 -0.0101663 14.837 0.0369384 14.6472C0.0840432 14.4575 0.174918 14.2808 0.302584 14.1308L3.49267 10.3788C3.85135 4.6992 8.03921 1.14746 9.20112 0.267776C9.42975 0.0941965 9.71077 0 10 0C10.2892 0 10.5703 0.0941965 10.7989 0.267776C11.9608 1.14746 16.1487 4.6992 16.5073 10.3788L19.6974 14.1308C19.8251 14.2808 19.916 14.4575 19.9631 14.6472C20.0102 14.837 20.0122 15.0349 19.9691 15.2256ZM6.64253 18.74H13.3575C19.355 8.56831 11.8477 2.13151 10.2674 0.937655C10.191 0.879275 10.0969 0.847569 10 0.847569C9.90312 0.847569 9.80901 0.879275 9.73262 0.937655C8.15225 2.13151 0.644961 8.56831 6.64253 18.74ZM5.82518 19.0521C4.25242 16.3502 3.57962 13.8965 3.47854 11.7175L0.969947 14.6718C0.9274 14.7218 0.897144 14.7808 0.881504 14.8441C0.865864 14.9075 0.865258 14.9735 0.879733 15.0371L2.22315 20.9616C2.23905 21.0324 2.27311 21.098 2.32211 21.1523C2.37112 21.2066 2.43344 21.2477 2.50319 21.2718C2.57295 21.2959 2.64782 21.3022 2.72073 21.29C2.79364 21.2778 2.86218 21.2477 2.91986 21.2023L2.92965 21.1948L5.82518 19.0521ZM19.0301 14.6718L16.5215 11.7175C16.4247 13.8965 15.7519 16.3502 14.1792 19.0521L17.0747 21.1948L17.0845 21.2023C17.1422 21.2477 17.2107 21.2778 17.2836 21.29C17.3565 21.3022 17.4314 21.2959 17.5012 21.2718C17.5709 21.2477 17.6332 21.2066 17.6822 21.1523C17.7312 21.098 17.7653 21.0324 17.7812 20.9616L19.1246 15.0371C19.1385 14.9731 19.1372 14.907 19.1208 14.8436C19.1044 14.7803 19.0734 14.7215 19.0301 14.6718Z" fill="white" fill-opacity="0.6"/>
</svg>
