<svg width="14" height="14" viewBox="0 0 14 14" fill="none" xmlns="http://www.w3.org/2000/svg">
<g clip-path="url(#clip0_80_1301)">
<path d="M12.9067 4.35953L13.7868 5.23969L11.8409 7.17878L9.64047 4.98527L4.98527 9.64047L7.17878 11.8409L5.23969 13.7868L4.35953 12.9067L3.25933 14L1.9391 12.6866C1.89325 12.7279 1.84741 12.776 1.80157 12.831C1.75573 12.8861 1.7053 12.9365 1.65029 12.9823C1.59528 13.0282 1.53798 13.0694 1.47839 13.1061C1.4188 13.1428 1.35232 13.1611 1.27898 13.1611C1.15979 13.1611 1.05665 13.1176 0.969548 13.0305C0.882449 12.9434 0.8389 12.8402 0.8389 12.721C0.8389 12.6523 0.854944 12.5881 0.887033 12.5285C0.919122 12.4689 0.96038 12.4116 1.01081 12.3566C1.06123 12.3016 1.11395 12.2511 1.16896 12.2053C1.22397 12.1595 1.2721 12.1113 1.31336 12.0609L0 10.7407L1.09332 9.64047L0.213163 8.76031L2.15914 6.82122L4.35953 9.01473L9.01473 4.35953L6.82122 2.15914L8.76031 0.213163L9.64047 1.09332L10.7407 0L12.0609 1.31336C12.1067 1.2721 12.1526 1.22397 12.1984 1.16896C12.2443 1.11395 12.2947 1.06352 12.3497 1.01768C12.4047 0.97184 12.462 0.930583 12.5216 0.89391C12.5812 0.857236 12.6477 0.8389 12.721 0.8389C12.8402 0.8389 12.9434 0.882449 13.0305 0.969548C13.1176 1.05665 13.1611 1.15979 13.1611 1.27898C13.1611 1.34774 13.1451 1.41192 13.113 1.47151C13.0809 1.53111 13.0396 1.58841 12.9892 1.64342C12.9388 1.69843 12.8861 1.74885 12.831 1.7947C12.776 1.84054 12.7279 1.88867 12.6866 1.9391L14 3.25933L12.9067 4.35953ZM3.73379 12.2809L1.71906 10.2662L1.2446 10.7407L3.25933 12.7554L3.73379 12.2809ZM5.94106 11.8409L2.15914 8.05894L1.46464 8.76031L5.23969 12.5354L5.94106 11.8409ZM10.2662 1.71906L12.2809 3.73379L12.7554 3.25933L10.7407 1.2446L10.2662 1.71906ZM12.5354 5.23969L8.76031 1.46464L8.05894 2.15914L11.8409 5.94106L12.5354 5.23969Z" fill="white" fill-opacity="0.6"/>
</g>
<defs>
<clipPath id="clip0_80_1301">
<rect width="14" height="14" fill="white"/>
</clipPath>
</defs>
</svg>
