<svg width="16" height="16" viewBox="0 0 16 16" fill="none" xmlns="http://www.w3.org/2000/svg">
<path d="M8.99998 8H12.6666M6.99998 8H3.33331" stroke="white" stroke-opacity="0.6" stroke-width="1.5" stroke-linecap="round" stroke-linejoin="round"/>
<path d="M8 9C7.73478 9 7.48043 8.89464 7.29289 8.70711C7.10536 8.51957 7 8.26522 7 8C7 7.73478 7.10536 7.48043 7.29289 7.29289C7.48043 7.10536 7.73478 7 8 7C8.26522 7 8.51957 7.10536 8.70711 7.29289C8.89464 7.48043 9 7.73478 9 8C9 8.26522 8.89464 8.51957 8.70711 8.70711C8.51957 8.89464 8.26522 9 8 9Z" stroke="white" stroke-opacity="0.6" stroke-width="1.5"/>
<path d="M7.99998 14.6666C4.31798 14.6666 1.33331 11.6819 1.33331 7.99992C1.33331 4.31792 4.31798 1.33325 7.99998 1.33325C11.682 1.33325 14.6666 4.31792 14.6666 7.99992C14.6666 11.6819 11.682 14.6666 7.99998 14.6666Z" stroke="white" stroke-opacity="0.6" stroke-width="1.5"/>
<path d="M4.67331 9.33317C4.32665 8.9865 3.33331 8.33317 3.33331 7.99984C3.33331 7.6665 4.33998 6.99984 4.67331 6.6665M11.3333 6.6665C11.68 7.01317 12.6733 7.6665 12.6733 7.99984C12.6733 8.33317 11.6666 8.99984 11.3333 9.33317" stroke="white" stroke-opacity="0.6" stroke-width="1.5" stroke-linecap="round" stroke-linejoin="round"/>
</svg>
